<svg width="235" height="63" viewBox="0 0 235 63" fill="none" xmlns="http://www.w3.org/2000/svg">
<g filter="url(#filter0_b_1_12)">
<path d="M10.74 43.36C10.74 45.72 8.44 46.9 3.84 46.9C2.84 46.9 2.24 46.4 2.04 45.4C1.88 44.36 1.8 42.92 1.8 41.08C1.8 37.2 2.58 32.4 4.14 26.68C6.74 17.24 9.52 11.68 12.48 10C12.88 9.76 13.32 9.64 13.8 9.64C14.28 9.64 14.52 10.42 14.52 11.98C14.52 13.54 14.44 14.92 14.28 16.12C13.96 18.52 13.38 21.62 12.54 25.42C11.74 29.22 11.34 31.46 11.34 32.14L10.74 43.36ZM14.82 27.22C14.82 26.7 15.1 26.36 15.66 26.2C16.26 26.04 17 25.9 17.88 25.78C18.76 25.62 19.72 25.4 20.76 25.12C21.8 24.84 22.76 24.32 23.64 23.56C25.68 21.8 26.7 18.86 26.7 14.74C26.7 12.1 25.8 10.08 24 8.68C22.24 7.28 19.68 6.58 16.32 6.58C13 6.58 9.88 7.28 6.96 8.68C5.88 9.2 4.9 9.68 4.02 10.12C3.18 10.56 2.4 10.78 1.68 10.78C0.96 10.78 0.6 10.56 0.6 10.12C0.6 9.44 1.26 8.32 2.58 6.76C3.9 5.32 5.98 3.98 8.82 2.74C11.7 1.5 14.72 0.879998 17.88 0.879998C23.84 0.839998 28.48 2.24 31.8 5.08C34.68 7.56 36.12 10.78 36.12 14.74C36.12 18.66 34.7 22.18 31.86 25.3C29.02 28.38 25.46 29.92 21.18 29.92C16.94 29.92 14.82 29.02 14.82 27.22ZM49.5183 39.46C52.6383 39.46 55.6583 38.22 58.5783 35.74C59.6583 34.82 60.5383 33.98 61.2183 33.22C61.8983 32.42 62.4183 32.02 62.7783 32.02C63.3383 32.02 63.6183 32.58 63.6183 33.7C63.6183 34.82 63.3183 36.08 62.7183 37.48C62.1183 38.84 61.1183 40.18 59.7183 41.5C56.2783 44.74 51.5583 46.36 45.5583 46.36C40.7983 46.36 37.5583 44.64 35.8383 41.2C35.2383 40 34.9383 38.28 34.9383 36.04C34.9383 33.8 35.3783 31.48 36.2583 29.08C37.1383 26.64 38.2983 24.54 39.7383 22.78C41.2183 21.02 42.9183 19.66 44.8383 18.7C46.7583 17.7 48.7983 17.2 50.9583 17.2C53.1583 17.2 54.8383 17.74 55.9983 18.82C57.1983 19.9 57.7983 21.3 57.7983 23.02C57.7983 24.74 57.3583 26.16 56.4783 27.28C55.6383 28.36 54.5383 29.28 53.1783 30.04C51.8183 30.76 50.2983 31.42 48.6183 32.02C46.9783 32.58 45.3583 33.22 43.7583 33.94V35.44C43.7983 36.88 44.3983 37.9 45.5583 38.5C46.7183 39.1 48.0383 39.42 49.5183 39.46ZM48.4983 22.54C46.4183 22.54 44.9783 24.96 44.1783 29.8C45.0183 29.24 45.7983 28.74 46.5183 28.3C47.2783 27.86 47.9383 27.44 48.4983 27.04C49.6983 26.16 50.3183 25.16 50.3583 24.04C50.3583 23.04 49.7383 22.54 48.4983 22.54ZM68.5964 16.06C70.0364 16.06 71.3964 17.44 72.6764 20.2C74.5564 18.24 76.8764 17.26 79.6364 17.26C82.4364 17.26 84.5364 17.88 85.9364 19.12C87.3364 20.32 88.0364 22.04 88.0364 24.28C88.0364 26.48 87.7364 28.72 87.1364 31C86.5764 33.28 86.1564 34.92 85.8764 35.92C85.6364 36.88 85.5164 37.68 85.5164 38.32C85.5164 38.96 85.7364 39.28 86.1764 39.28C86.7764 39.28 87.5164 38.9 88.3964 38.14C89.2764 37.38 90.1564 36.56 91.0364 35.68C91.9164 34.76 92.7164 33.92 93.4364 33.16C94.1964 32.4 94.7164 32.02 94.9964 32.02C95.5564 32.02 95.8364 32.7 95.8364 34.06C95.8364 36.86 94.4564 39.56 91.6964 42.16C87.0564 44.88 84.0964 46.24 82.8164 46.24C82.6964 46.24 82.6164 46.22 82.5764 46.18C79.3764 46.18 77.7764 43.62 77.7764 38.5C77.7764 36.3 77.9764 34.28 78.3764 32.44C78.8164 30.6 79.1364 29.26 79.3364 28.42C79.5364 27.58 79.6364 26.72 79.6364 25.84C79.6364 24.4 78.7964 23.68 77.1164 23.68C75.4764 23.68 73.8964 24.92 72.3764 27.4C70.8964 29.84 69.8964 32.38 69.3764 35.02V35.44C69.3764 36.8 69.5764 38.2 69.9764 39.64C70.4164 41.08 70.6364 42.08 70.6364 42.64C70.6364 44 68.9364 45.34 65.5364 46.66C65.0164 46.86 64.5564 46.96 64.1564 46.96C63.1564 46.96 62.4564 46.44 62.0564 45.4C61.6964 44.36 61.5164 42.74 61.5164 40.54C61.5164 34.86 61.7364 30.76 62.1764 28.24C62.7764 24.48 64.1364 20.98 66.2564 17.74C66.9764 16.62 67.7564 16.06 68.5964 16.06ZM106.823 39.46C109.943 39.46 112.963 38.22 115.883 35.74C116.963 34.82 117.843 33.98 118.523 33.22C119.203 32.42 119.723 32.02 120.083 32.02C120.643 32.02 120.923 32.58 120.923 33.7C120.923 34.82 120.623 36.08 120.023 37.48C119.423 38.84 118.423 40.18 117.023 41.5C113.583 44.74 108.863 46.36 102.863 46.36C98.103 46.36 94.863 44.64 93.143 41.2C92.543 40 92.243 38.28 92.243 36.04C92.243 33.8 92.683 31.48 93.563 29.08C94.443 26.64 95.603 24.54 97.043 22.78C98.523 21.02 100.223 19.66 102.143 18.7C104.063 17.7 106.103 17.2 108.263 17.2C110.463 17.2 112.143 17.74 113.303 18.82C114.503 19.9 115.103 21.3 115.103 23.02C115.103 24.74 114.663 26.16 113.783 27.28C112.943 28.36 111.843 29.28 110.483 30.04C109.123 30.76 107.603 31.42 105.923 32.02C104.283 32.58 102.663 33.22 101.063 33.94V35.44C101.103 36.88 101.703 37.9 102.863 38.5C104.023 39.1 105.343 39.42 106.823 39.46ZM105.803 22.54C103.723 22.54 102.283 24.96 101.483 29.8C102.323 29.24 103.103 28.74 103.823 28.3C104.583 27.86 105.243 27.44 105.803 27.04C107.003 26.16 107.623 25.16 107.663 24.04C107.663 23.04 107.043 22.54 105.803 22.54ZM131.301 46.18C125.581 46.22 121.681 44.08 119.601 39.76C118.881 38.24 118.521 36.34 118.521 34.06C118.521 31.74 118.721 29.28 119.121 26.68C119.921 21.48 121.461 16.68 123.741 12.28C124.901 10.04 126.201 8.12 127.641 6.52C130.801 3 134.321 1.26 138.201 1.3C139.921 1.3 141.261 1.78 142.221 2.74C143.221 3.66 143.721 5 143.721 6.76C143.721 8.52 143.201 10.3 142.161 12.1C141.121 13.86 139.781 15.7 138.141 17.62C136.541 19.5 134.761 21.48 132.801 23.56C130.841 25.64 128.921 27.9 127.041 30.34V32.74C127.041 34.98 127.521 36.62 128.481 37.66C129.441 38.7 130.561 39.22 131.841 39.22C135.281 39.22 138.321 37.52 140.961 34.12C142.041 32.72 142.861 32.02 143.421 32.02C143.981 32.02 144.261 32.7 144.261 34.06C144.261 35.42 143.881 36.82 143.121 38.26C142.401 39.66 141.441 40.96 140.241 42.16C139.041 43.32 137.661 44.28 136.101 45.04C134.541 45.8 132.941 46.18 131.301 46.18ZM134.541 13.96C135.381 12.92 136.041 11.98 136.521 11.14C137.001 10.3 137.241 9.44 137.241 8.56C137.241 7.64 136.921 7.18 136.281 7.18C134.881 7.18 133.321 8.62 131.601 11.5C129.921 14.38 128.661 18.16 127.821 22.84C129.181 20.76 130.421 19.02 131.541 17.62C132.701 16.22 133.701 15 134.541 13.96ZM164.954 40.9C161.794 44.62 157.994 46.48 153.554 46.48C149.154 46.48 145.854 45.36 143.654 43.12C141.454 40.84 140.374 38.02 140.414 34.66C140.374 29.9 141.874 25.8 144.914 22.36C147.954 18.92 151.934 17.2 156.854 17.2C159.094 17.2 160.894 17.48 162.254 18.04C164.614 19 165.794 19.9 165.794 20.74C165.794 21.38 164.134 21.72 160.814 21.76C157.534 21.76 154.774 22.9 152.534 25.18C150.334 27.42 149.234 30.26 149.234 33.7C149.234 35.5 149.754 37.02 150.794 38.26C151.874 39.46 153.374 40.06 155.294 40.06C157.254 40.06 158.874 39.66 160.154 38.86C157.314 36.94 155.894 34.16 155.894 30.52C155.854 28.6 156.534 26.86 157.934 25.3C159.374 23.7 161.194 22.9 163.394 22.9C165.634 22.86 167.234 23.46 168.194 24.7C169.154 25.94 169.634 27.54 169.634 29.5C169.634 31.42 169.174 33.46 168.254 35.62H168.614C170.374 35.58 171.894 34.96 173.174 33.76C173.654 33.28 174.054 32.86 174.374 32.5C174.734 32.14 175.094 31.96 175.454 31.96C176.014 31.96 176.294 32.62 176.294 33.94C176.294 36.38 175.574 38.22 174.134 39.46C172.694 40.66 171.094 41.26 169.334 41.26C167.614 41.26 166.154 41.14 164.954 40.9ZM164.414 33.94C165.094 32.5 165.434 31.1 165.434 29.74C165.434 28.38 164.994 27.7 164.114 27.7C163.754 27.7 163.454 27.96 163.214 28.48C162.974 29 162.854 29.5 162.854 29.98C162.854 31.58 163.374 32.9 164.414 33.94ZM184.632 20.86C186.712 18.5 189.372 17.32 192.612 17.32C197.252 17.32 200.192 19.2 201.432 22.96C201.792 24.08 201.972 25.32 201.972 26.68C201.972 29.72 200.972 32.72 198.972 35.68C197.012 38.64 194.632 40.64 191.832 41.68H192.552C195.472 41.68 198.432 40.6 201.432 38.44C203.352 37.08 204.852 35.68 205.932 34.24C207.052 32.76 207.892 32.02 208.452 32.02C209.012 32.02 209.292 32.66 209.292 33.94C209.292 36.18 208.332 38.44 206.412 40.72C203.532 44 199.852 45.92 195.372 46.48C192.132 46.84 189.832 46.9 188.472 46.66C187.112 46.42 186.072 46.12 185.352 45.76C183.792 44.96 183.012 43.76 183.012 42.16C183.012 41.28 183.192 40.48 183.552 39.76C186.712 39.76 189.112 38.56 190.752 36.16C192.392 33.76 193.212 30.76 193.212 27.16C193.212 26.28 192.892 25.5 192.252 24.82C191.612 24.1 190.752 23.74 189.672 23.74C188.632 23.74 187.492 24.2 186.252 25.12C185.012 26.04 184.012 27.2 183.252 28.6C182.532 29.96 181.872 31.32 181.272 32.68C180.672 34 180.192 35.68 179.832 37.72C179.192 41.4 178.452 46.04 177.612 51.64C176.812 57.28 176.312 60.3 176.112 60.7C175.912 61.14 175.612 61.54 175.212 61.9C174.812 62.26 174.392 62.44 173.952 62.44C173.152 62.44 172.492 62.2 171.972 61.72C170.532 60.48 169.692 59.52 169.452 58.84C169.212 58.2 169.092 57.36 169.092 56.32C169.092 52.4 169.752 46.9 171.072 39.82C172.392 32.74 174.672 25.38 177.912 17.74C178.392 16.62 179.232 16.06 180.432 16.06C181.672 16.06 182.852 17.14 183.972 19.3C184.292 19.86 184.512 20.38 184.632 20.86ZM220.26 39.46C223.38 39.46 226.4 38.22 229.32 35.74C230.4 34.82 231.28 33.98 231.96 33.22C232.64 32.42 233.16 32.02 233.52 32.02C234.08 32.02 234.36 32.58 234.36 33.7C234.36 34.82 234.06 36.08 233.46 37.48C232.86 38.84 231.86 40.18 230.46 41.5C227.02 44.74 222.3 46.36 216.3 46.36C211.54 46.36 208.3 44.64 206.58 41.2C205.98 40 205.68 38.28 205.68 36.04C205.68 33.8 206.12 31.48 207 29.08C207.88 26.64 209.04 24.54 210.48 22.78C211.96 21.02 213.66 19.66 215.58 18.7C217.5 17.7 219.54 17.2 221.7 17.2C223.9 17.2 225.58 17.74 226.74 18.82C227.94 19.9 228.54 21.3 228.54 23.02C228.54 24.74 228.1 26.16 227.22 27.28C226.38 28.36 225.28 29.28 223.92 30.04C222.56 30.76 221.04 31.42 219.36 32.02C217.72 32.58 216.1 33.22 214.5 33.94V35.44C214.54 36.88 215.14 37.9 216.3 38.5C217.46 39.1 218.78 39.42 220.26 39.46ZM219.24 22.54C217.16 22.54 215.72 24.96 214.92 29.8C215.76 29.24 216.54 28.74 217.26 28.3C218.02 27.86 218.68 27.44 219.24 27.04C220.44 26.16 221.06 25.16 221.1 24.04C221.1 23.04 220.48 22.54 219.24 22.54Z" fill="#F2BF07"/>
<path d="M10.74 43.36L10.2407 43.3333L10.24 43.3466V43.36H10.74ZM2.04 45.4L1.54581 45.476L1.54752 45.4871L1.54971 45.4981L2.04 45.4ZM4.14 26.68L3.65795 26.5472L3.65762 26.5484L4.14 26.68ZM12.48 10L12.7269 10.435L12.7372 10.4287L12.48 10ZM14.28 16.12L13.7844 16.0539L14.28 16.12ZM12.54 25.42L12.0518 25.3121L12.0507 25.317L12.54 25.42ZM11.34 32.14L11.8393 32.1667L11.84 32.1534V32.14H11.34ZM15.66 26.2L15.5311 25.7168L15.5226 25.7192L15.66 26.2ZM17.88 25.78L17.9476 26.2754L17.9585 26.2739L17.9694 26.2719L17.88 25.78ZM20.76 25.12L20.89 25.6028L20.76 25.12ZM23.64 23.56L23.3134 23.1814L23.3132 23.1816L23.64 23.56ZM24 8.68L23.6887 9.07132L23.693 9.07467L24 8.68ZM6.96 8.68L6.74384 8.22914L6.74309 8.2295L6.96 8.68ZM4.02 10.12L3.79635 9.6727L3.788 9.67708L4.02 10.12ZM2.58 6.76L2.21142 6.42213L2.20472 6.42945L2.19831 6.43703L2.58 6.76ZM8.82 2.74L8.62227 2.28075L8.61993 2.28177L8.82 2.74ZM17.88 0.879997V1.38001L17.8834 1.37999L17.88 0.879997ZM31.8 5.08L32.1263 4.70111L32.125 4.70005L31.8 5.08ZM31.86 25.3L32.2276 25.6389L32.2298 25.6366L31.86 25.3ZM10.24 43.36C10.24 43.8651 10.1182 44.2843 9.88947 44.6363C9.65911 44.9909 9.30147 45.3061 8.78676 45.5701C7.74285 46.1057 6.11347 46.4 3.84 46.4V47.4C6.16653 47.4 7.98715 47.1043 9.24324 46.4599C9.87854 46.1339 10.3834 45.7116 10.728 45.1812C11.0743 44.6482 11.24 44.0349 11.24 43.36H10.24ZM3.84 46.4C3.4235 46.4 3.1475 46.2971 2.96009 46.1409C2.77154 45.9838 2.6148 45.7245 2.53029 45.3019L1.54971 45.4981C1.6652 46.0755 1.90846 46.5662 2.31991 46.9091C2.7325 47.2529 3.2565 47.4 3.84 47.4V46.4ZM2.53419 45.324C2.37989 44.321 2.3 42.9104 2.3 41.08H1.3C1.3 42.9296 1.38012 44.399 1.54581 45.476L2.53419 45.324ZM2.3 41.08C2.3 37.2613 3.06861 32.5087 4.62238 26.8116L3.65762 26.5484C2.09139 32.2913 1.3 37.1387 1.3 41.08H2.3ZM4.62205 26.8128C5.91774 22.1084 7.25256 18.3929 8.62221 15.6536C9.9995 12.899 11.379 11.1998 12.7268 10.4348L12.2332 9.56516C10.621 10.4802 9.1305 12.401 7.72779 15.2064C6.31744 18.0271 4.96227 21.8116 3.65795 26.5472L4.62205 26.8128ZM12.7372 10.4287C13.0572 10.2368 13.4079 10.14 13.8 10.14V9.14C13.2321 9.14 12.7028 9.28323 12.2228 9.57125L12.7372 10.4287ZM13.8 10.14C13.6846 10.14 13.7549 10.0237 13.8621 10.372C13.9596 10.6888 14.02 11.2132 14.02 11.98H15.02C15.02 11.1868 14.9604 10.5412 14.8179 10.078C14.6851 9.64631 14.3954 9.14 13.8 9.14V10.14ZM14.02 11.98C14.02 13.5238 13.9408 14.881 13.7844 16.0539L14.7756 16.1861C14.9392 14.959 15.02 13.5562 15.02 11.98H14.02ZM13.7844 16.0539C13.467 18.4341 12.8903 21.5187 12.0518 25.3121L13.0282 25.5279C13.8697 21.7213 14.453 18.6059 14.7756 16.1861L13.7844 16.0539ZM12.0507 25.317C11.6503 27.2191 11.3491 28.7348 11.1478 29.8621C10.9497 30.9712 10.84 31.7472 10.84 32.14H11.84C11.84 31.8528 11.9303 31.1688 12.1322 30.0379C12.3309 28.9252 12.6297 27.4209 13.0293 25.523L12.0507 25.317ZM10.8407 32.1133L10.2407 43.3333L11.2393 43.3867L11.8393 32.1667L10.8407 32.1133ZM15.32 27.22C15.32 27.0541 15.3625 26.9578 15.416 26.8929C15.4737 26.8228 15.5838 26.7418 15.7974 26.6808L15.5226 25.7192C15.1762 25.8182 14.8663 25.9872 14.644 26.2571C14.4175 26.5322 14.32 26.8659 14.32 27.22H15.32ZM15.7888 26.6831C16.3622 26.5302 17.0802 26.3937 17.9476 26.2754L17.8124 25.2846C16.9198 25.4063 16.1578 25.5498 15.5312 25.7169L15.7888 26.6831ZM17.9694 26.2719C18.8655 26.109 19.8392 25.8857 20.89 25.6028L20.63 24.6372C19.6008 24.9143 18.6545 25.131 17.7906 25.2881L17.9694 26.2719ZM20.89 25.6028C22.0083 25.3017 23.0345 24.7436 23.9668 23.9384L23.3132 23.1816C22.4855 23.8964 21.5917 24.3783 20.63 24.6372L20.89 25.6028ZM23.9666 23.9386C26.1641 22.0427 27.2 18.9282 27.2 14.74H26.2C26.2 18.7918 25.1959 21.5573 23.3134 23.1814L23.9666 23.9386ZM27.2 14.74C27.2 11.9732 26.2489 9.79573 24.307 8.28532L23.693 9.07467C25.3511 10.3643 26.2 12.2268 26.2 14.74H27.2ZM24.3113 8.2887C22.4284 6.79098 19.7395 6.08 16.32 6.08V7.08C19.6205 7.08 22.0516 7.76902 23.6887 9.0713L24.3113 8.2887ZM16.32 6.08C12.9271 6.08 9.73304 6.79596 6.74384 8.22914L7.17616 9.13086C10.027 7.76404 13.0729 7.08 16.32 7.08V6.08ZM6.74309 8.2295C5.66131 8.75035 4.67904 9.23146 3.79639 9.67278L4.24361 10.5672C5.12097 10.1285 6.09869 9.64964 7.17691 9.1305L6.74309 8.2295ZM3.788 9.67708C2.99772 10.091 2.29767 10.28 1.68 10.28V11.28C2.50233 11.28 3.36228 11.029 4.252 10.5629L3.788 9.67708ZM1.68 10.28C1.35466 10.28 1.19458 10.2274 1.13073 10.1884C1.11748 10.1803 1.11107 10.1744 1.10866 10.1719C1.1074 10.1706 1.10682 10.1699 1.10666 10.1696C1.1065 10.1694 1.10647 10.1694 1.10645 10.1693C1.10642 10.1693 1.10616 10.1688 1.10573 10.1677C1.10529 10.1665 1.10456 10.1643 1.10375 10.1609C1.10214 10.154 1.1 10.1409 1.1 10.12H0.1C0.1 10.5051 0.273047 10.8362 0.609274 11.0416C0.905425 11.2226 1.28534 11.28 1.68 11.28V10.28ZM1.1 10.12C1.1 9.91889 1.20658 9.5655 1.52577 9.02384C1.83569 8.49793 2.31089 7.85209 2.96169 7.08297L2.19831 6.43703C1.52911 7.2279 1.01431 7.92207 0.664231 8.51615C0.323422 9.0945 0.1 9.64111 0.1 10.12H1.1ZM2.94858 7.09786C4.20185 5.73065 6.2107 4.42485 9.02007 3.19823L8.61993 2.28177C5.7493 3.53514 3.59815 4.90934 2.21142 6.42213L2.94858 7.09786ZM9.01773 3.19924C11.8348 1.98634 14.7875 1.38 17.88 1.38V0.379997C14.6525 0.379997 11.5652 1.01365 8.62227 2.28076L9.01773 3.19924ZM17.8834 1.37999C23.767 1.3405 28.2751 2.72268 31.475 5.45995L32.125 4.70005C28.6849 1.75732 23.913 0.339497 17.8766 0.380009L17.8834 1.37999ZM31.4737 5.45888C34.2383 7.83944 35.62 10.9186 35.62 14.74H36.62C36.62 10.6414 35.1217 7.28056 32.1263 4.70111L31.4737 5.45888ZM35.62 14.74C35.62 18.5255 34.2534 21.9278 31.4902 24.9634L32.2298 25.6366C35.1466 22.4322 36.62 18.7945 36.62 14.74H35.62ZM31.4924 24.9611C28.7494 27.9359 25.3238 29.42 21.18 29.42V30.42C25.5962 30.42 29.2906 28.8241 32.2276 25.6389L31.4924 24.9611ZM21.18 29.42C19.0802 29.42 17.5715 29.1949 16.6054 28.7848C16.1276 28.5819 15.8089 28.3448 15.6108 28.0925C15.4184 27.8475 15.32 27.5639 15.32 27.22H14.32C14.32 27.7761 14.4866 28.28 14.8242 28.71C15.1562 29.1327 15.6324 29.4581 16.2146 29.7052C17.3685 30.1951 19.0398 30.42 21.18 30.42V29.42ZM49.5183 39.46L49.5048 39.96H49.5183V39.46ZM58.5783 35.74L58.902 36.1211L58.9025 36.1206L58.5783 35.74ZM61.2183 33.22L61.591 33.5535L61.5993 33.5438L61.2183 33.22ZM62.7183 37.48L63.1758 37.6818L63.1779 37.677L62.7183 37.48ZM59.7183 41.5L60.0611 41.864L60.0613 41.8638L59.7183 41.5ZM35.8383 41.2L35.3911 41.4236L35.8383 41.2ZM36.2583 29.08L36.7277 29.2521L36.7286 29.2496L36.2583 29.08ZM39.7383 22.78L39.3556 22.4582L39.3513 22.4634L39.7383 22.78ZM44.8383 18.7L45.0619 19.1473L45.0692 19.1435L44.8383 18.7ZM55.9983 18.82L55.6575 19.186L55.6638 19.1916L55.9983 18.82ZM56.4783 27.28L56.0851 26.9711L56.0836 26.973L56.4783 27.28ZM53.1783 30.04L53.4123 30.482L53.4222 30.4765L53.1783 30.04ZM48.6183 32.02L48.7799 32.4932L48.7864 32.4909L48.6183 32.02ZM43.7583 33.94L43.5531 33.484L43.2583 33.6167V33.94H43.7583ZM43.7583 35.44H43.2581L43.2585 35.4539L43.7583 35.44ZM45.5583 38.5L45.3286 38.9441L45.5583 38.5ZM44.1783 29.8L43.685 29.7185L43.4971 30.855L44.4556 30.216L44.1783 29.8ZM46.5183 28.3L46.2677 27.8672L46.2576 27.8734L46.5183 28.3ZM48.4983 27.04L48.7889 27.4469L48.794 27.4432L48.4983 27.04ZM50.3583 24.04L50.858 24.0578L50.8583 24.0489V24.04H50.3583ZM49.5183 39.96C52.7822 39.96 55.9129 38.6597 58.902 36.1211L58.2546 35.3589C55.4036 37.7803 52.4944 38.96 49.5183 38.96V39.96ZM58.9025 36.1206C59.9936 35.1912 60.8913 34.3353 61.5909 33.5534L60.8457 32.8866C60.1852 33.6247 59.323 34.4488 58.2541 35.3594L58.9025 36.1206ZM61.5993 33.5438C61.9283 33.1567 62.2025 32.8861 62.4231 32.7163C62.5328 32.6319 62.6198 32.5799 62.6852 32.5502C62.7513 32.5201 62.7797 32.52 62.7783 32.52V31.52C62.4287 31.52 62.0978 31.7049 61.8134 31.9237C61.5141 32.1539 61.1883 32.4833 60.8373 32.8962L61.5993 33.5438ZM62.7783 32.52C62.8308 32.52 62.8544 32.5317 62.8684 32.541C62.8856 32.5524 62.9207 32.5829 62.9611 32.6636C63.0488 32.8391 63.1183 33.1655 63.1183 33.7H64.1183C64.1183 33.1145 64.0477 32.6009 63.8555 32.2164C63.7558 32.0171 63.616 31.8376 63.4231 31.709C63.2271 31.5783 63.0058 31.52 62.7783 31.52V32.52ZM63.1183 33.7C63.1183 34.7326 62.8411 35.9242 62.2587 37.283L63.1779 37.677C63.7955 36.2358 64.1183 34.9074 64.1183 33.7H63.1183ZM62.2608 37.2782C61.6944 38.562 60.7404 39.8491 59.3753 41.1362L60.0613 41.8638C61.4962 40.5109 62.5421 39.118 63.1757 37.6818L62.2608 37.2782ZM59.3755 41.136C56.0514 44.2669 51.4666 45.86 45.5583 45.86V46.86C51.6499 46.86 56.5052 45.2131 60.0611 41.864L59.3755 41.136ZM45.5583 45.86C40.9336 45.86 37.8991 44.2035 36.2855 40.9764L35.3911 41.4236C37.2175 45.0765 40.6629 46.86 45.5583 46.86V45.86ZM36.2855 40.9764C35.736 39.8775 35.4383 38.2479 35.4383 36.04H34.4383C34.4383 38.3121 34.7405 40.1225 35.3911 41.4236L36.2855 40.9764ZM35.4383 36.04C35.4383 33.8664 35.8651 31.6047 36.7277 29.2521L35.7888 28.9079C34.8914 31.3553 34.4383 33.7336 34.4383 36.04H35.4383ZM36.7286 29.2496C37.592 26.8556 38.7259 24.807 40.1253 23.0966L39.3513 22.4634C37.8707 24.273 36.6845 26.4244 35.7879 28.9104L36.7286 29.2496ZM40.121 23.1018C41.5602 21.3902 43.2072 20.0746 45.0619 19.1472L44.6147 18.2528C42.6294 19.2454 40.8763 20.6497 39.3556 22.4582L40.121 23.1018ZM45.0692 19.1435C46.9181 18.1805 48.8789 17.7 50.9583 17.7V16.7C48.7177 16.7 46.5985 17.2195 44.6073 18.2565L45.0692 19.1435ZM50.9583 17.7C53.0813 17.7 54.6208 18.2207 55.6576 19.1859L56.339 18.4541C55.0557 17.2593 53.2353 16.7 50.9583 16.7V17.7ZM55.6638 19.1916C56.7509 20.1701 57.2983 21.4313 57.2983 23.02H58.2983C58.2983 21.1687 57.6456 19.6299 56.3328 18.4484L55.6638 19.1916ZM57.2983 23.02C57.2983 24.652 56.8824 25.9564 56.0851 26.9711L56.8714 27.5889C57.8342 26.3636 58.2983 24.828 58.2983 23.02H57.2983ZM56.0836 26.973C55.29 27.9934 54.244 28.8717 52.9344 29.6035L53.4222 30.4765C54.8325 29.6883 55.9866 28.7266 56.873 27.587L56.0836 26.973ZM52.9443 29.5981C51.6086 30.3053 50.111 30.956 48.4501 31.5491L48.7864 32.4909C50.4856 31.884 52.028 31.2147 53.4122 30.4819L52.9443 29.5981ZM48.4567 31.5468C46.8017 32.1119 45.1672 32.7577 43.5531 33.484L43.9635 34.396C45.5494 33.6823 47.1548 33.0481 48.7799 32.4932L48.4567 31.5468ZM43.2583 33.94V35.44H44.2583V33.94H43.2583ZM43.2585 35.4539C43.3029 37.0529 43.9876 38.2505 45.3286 38.9441L45.788 38.0559C44.809 37.5495 44.2937 36.7071 44.2581 35.4261L43.2585 35.4539ZM45.3286 38.9441C46.564 39.5831 47.9595 39.9181 49.5048 39.9598L49.5318 38.9602C48.117 38.9219 46.8726 38.6169 45.788 38.0559L45.3286 38.9441ZM48.4983 22.04C47.2216 22.04 46.2028 22.7982 45.4286 24.0993C44.6614 25.3886 44.0887 27.2757 43.685 29.7185L44.6716 29.8815C45.0678 27.4843 45.6151 25.7414 46.288 24.6107C46.9537 23.4918 47.695 23.04 48.4983 23.04V22.04ZM44.4556 30.216C45.2912 29.659 46.0656 29.1626 46.779 28.7266L46.2576 27.8734C45.531 28.3174 44.7454 28.821 43.9009 29.384L44.4556 30.216ZM46.7688 28.7327C47.539 28.2868 48.213 27.8582 48.7889 27.4469L48.2077 26.6331C47.6636 27.0218 47.0175 27.4332 46.2678 27.8673L46.7688 28.7327ZM48.794 27.4432C50.0738 26.5046 50.8108 25.3776 50.858 24.0578L49.8586 24.0222C49.8257 24.9424 49.3227 25.8154 48.2026 26.6368L48.794 27.4432ZM50.8583 24.04C50.8583 23.431 50.6642 22.8944 50.2072 22.5258C49.7707 22.1738 49.1724 22.04 48.4983 22.04V23.04C49.0642 23.04 49.3959 23.1562 49.5794 23.3042C49.7424 23.4356 49.8583 23.649 49.8583 24.04H50.8583ZM72.6764 20.2L72.2228 20.4104L72.5307 21.0742L73.0372 20.5461L72.6764 20.2ZM85.9364 19.12L85.6048 19.4943L85.611 19.4996L85.9364 19.12ZM87.1364 31L86.6528 30.8727L86.6508 30.8807L87.1364 31ZM85.8764 35.92L85.3947 35.7851L85.3913 35.7987L85.8764 35.92ZM88.3964 38.14L88.0696 37.7616L88.3964 38.14ZM91.0364 35.68L91.39 36.0336L91.3977 36.0256L91.0364 35.68ZM93.4364 33.16L93.0827 32.8063L93.0734 32.8161L93.4364 33.16ZM91.6964 42.16L91.9493 42.5914L91.9981 42.5627L92.0393 42.5239L91.6964 42.16ZM82.5764 46.18L82.93 45.8265L82.7835 45.68H82.5764V46.18ZM78.3764 32.44L77.89 32.3237L77.8878 32.3338L78.3764 32.44ZM72.3764 27.4L71.9501 27.1387L71.9489 27.1407L72.3764 27.4ZM69.3764 35.02L68.8858 34.9234L68.8764 34.9712V35.02H69.3764ZM69.9764 39.64L69.4945 39.7739L69.4982 39.7861L69.9764 39.64ZM65.5364 46.66L65.7159 47.1267L65.7174 47.1261L65.5364 46.66ZM62.0564 45.4L61.5839 45.5636L61.5867 45.5716L61.5897 45.5795L62.0564 45.4ZM62.1764 28.24L62.669 28.326L62.6702 28.3188L62.1764 28.24ZM66.2564 17.74L66.6748 18.0138L66.677 18.0104L66.2564 17.74ZM68.5964 16.56C69.1413 16.56 69.7207 16.8173 70.3403 17.446C70.9637 18.0785 71.5948 19.0562 72.2228 20.4104L73.13 19.9896C72.478 18.5838 71.7891 17.4915 71.0525 16.744C70.3121 15.9927 69.4915 15.56 68.5964 15.56V16.56ZM73.0372 20.5461C74.8212 18.6862 77.0101 17.76 79.6364 17.76V16.76C76.7427 16.76 74.2916 17.7938 72.3156 19.8539L73.0372 20.5461ZM79.6364 17.76C82.3733 17.76 84.3325 18.3673 85.6049 19.4943L86.2679 18.7457C84.7403 17.3927 82.4995 16.76 79.6364 16.76V17.76ZM85.611 19.4996C86.8766 20.5844 87.5364 22.1517 87.5364 24.28H88.5364C88.5364 21.9283 87.7962 20.0556 86.2618 18.7404L85.611 19.4996ZM87.5364 24.28C87.5364 26.4341 87.2427 28.6313 86.6529 30.8728L87.6199 31.1272C88.2301 28.8087 88.5364 26.5259 88.5364 24.28H87.5364ZM86.6508 30.8807C86.0909 33.1603 85.6726 34.7936 85.3949 35.7852L86.3579 36.0548C86.6402 35.0464 87.0619 33.3997 87.622 31.1193L86.6508 30.8807ZM85.3913 35.7987C85.1462 36.7793 85.0164 37.6233 85.0164 38.32H86.0164C86.0164 37.7367 86.1266 36.9807 86.3615 36.0413L85.3913 35.7987ZM85.0164 38.32C85.0164 38.6818 85.0758 39.0416 85.2694 39.3233C85.4862 39.6387 85.8172 39.78 86.1764 39.78V38.78C86.1271 38.78 86.1081 38.7712 86.1058 38.7701C86.1043 38.7694 86.1037 38.7689 86.103 38.7683C86.1021 38.7675 86.0987 38.7644 86.0934 38.7567C86.067 38.7184 86.0164 38.5982 86.0164 38.32H85.0164ZM86.1764 39.78C86.967 39.78 87.826 39.2933 88.7232 38.5184L88.0696 37.7616C87.2068 38.5067 86.5859 38.78 86.1764 38.78V39.78ZM88.7232 38.5184C89.6131 37.7499 90.5019 36.9216 91.39 36.0336L90.6829 35.3264C89.8109 36.1984 88.9398 37.0101 88.0696 37.7616L88.7232 38.5184ZM91.3977 36.0256C92.2782 35.1052 93.0787 34.2646 93.7994 33.5039L93.0734 32.8161C92.3541 33.5754 91.5546 34.4148 90.6751 35.3344L91.3977 36.0256ZM93.79 33.5136C94.1621 33.1414 94.4613 32.8768 94.6914 32.7087C94.8064 32.6246 94.8938 32.5724 94.9559 32.5429C95.0237 32.5107 95.0314 32.52 94.9964 32.52V31.52C94.8214 31.52 94.6591 31.5768 94.5269 31.6396C94.3891 31.7051 94.2464 31.7954 94.1014 31.9013C93.8115 32.1132 93.4707 32.4186 93.0829 32.8064L93.79 33.5136ZM94.9964 32.52C95.0264 32.52 95.0368 32.526 95.0493 32.5361C95.07 32.5529 95.115 32.6011 95.1641 32.7204C95.2662 32.9685 95.3364 33.3993 95.3364 34.06H96.3364C96.3364 33.3607 96.2666 32.7715 96.0887 32.3396C95.9979 32.1189 95.8678 31.9121 95.6785 31.7589C95.481 31.599 95.2464 31.52 94.9964 31.52V32.52ZM95.3364 34.06C95.3364 36.6787 94.0501 39.2558 91.3536 41.7961L92.0393 42.5239C94.8627 39.8642 96.3364 37.0413 96.3364 34.06H95.3364ZM91.4436 41.7286C89.13 43.0849 87.2461 44.0956 85.7877 44.7657C85.0584 45.1007 84.4431 45.3471 83.9387 45.5089C83.4273 45.6729 83.0599 45.74 82.8164 45.74V46.74C83.2129 46.74 83.6955 46.6371 84.2441 46.4611C84.7997 46.2829 85.4545 46.0193 86.2052 45.6743C87.7067 44.9844 89.6229 43.9551 91.9493 42.5914L91.4436 41.7286ZM82.8164 45.74C82.7805 45.74 82.7745 45.7366 82.7877 45.7399C82.7978 45.7425 82.863 45.7595 82.93 45.8265L82.2229 46.5336C82.3298 46.6405 82.455 46.6875 82.5451 46.7101C82.6383 46.7334 82.7323 46.74 82.8164 46.74V45.74ZM82.5764 45.68C81.1363 45.68 80.1026 45.1185 79.4004 43.995C78.6737 42.8323 78.2764 41.0241 78.2764 38.5H77.2764C77.2764 41.0959 77.6791 43.1277 78.5524 44.525C79.4502 45.9615 80.8165 46.68 82.5764 46.68V45.68ZM78.2764 38.5C78.2764 36.3299 78.4737 34.3461 78.865 32.5462L77.8878 32.3338C77.4791 34.2139 77.2764 36.2701 77.2764 38.5H78.2764ZM78.8627 32.5563C79.3027 30.7163 79.6227 29.3761 79.8228 28.5358L78.85 28.3042C78.6501 29.1439 78.3301 30.4837 77.8901 32.3237L78.8627 32.5563ZM79.8228 28.5358C80.032 27.6571 80.1364 26.7583 80.1364 25.84H79.1364C79.1364 26.6817 79.0408 27.5029 78.85 28.3042L79.8228 28.5358ZM80.1364 25.84C80.1364 25.0211 79.8939 24.3222 79.3318 23.8404C78.7844 23.3712 78.0162 23.18 77.1164 23.18V24.18C77.8966 24.18 78.3884 24.3488 78.681 24.5996C78.9589 24.8378 79.1364 25.2189 79.1364 25.84H80.1364ZM77.1164 23.18C75.2009 23.18 73.4909 24.6249 71.9501 27.1387L72.8027 27.6613C74.302 25.2151 75.7519 24.18 77.1164 24.18V23.18ZM71.9489 27.1407C70.4404 29.6277 69.4178 32.2225 68.8858 34.9234L69.867 35.1166C70.375 32.5375 71.3524 30.0523 72.8039 27.6593L71.9489 27.1407ZM68.8764 35.02V35.44H69.8764V35.02H68.8764ZM68.8764 35.44C68.8764 36.8494 69.0837 38.2945 69.4946 39.7738L70.4582 39.5062C70.0691 38.1055 69.8764 36.7506 69.8764 35.44H68.8764ZM69.4982 39.7861C69.9403 41.2328 70.1364 42.165 70.1364 42.64H71.1364C71.1364 41.995 70.8925 40.9272 70.4546 39.4939L69.4982 39.7861ZM70.1364 42.64C70.1364 43.0946 69.8529 43.6409 69.0519 44.2723C68.2585 44.8977 67.0362 45.5414 65.3554 46.1939L65.7174 47.1261C67.4366 46.4586 68.7643 45.7723 69.6709 45.0577C70.5699 44.3491 71.1364 43.5454 71.1364 42.64H70.1364ZM65.3569 46.1933C64.8733 46.3793 64.4761 46.46 64.1564 46.46V47.46C64.6367 47.46 65.1595 47.3407 65.7159 47.1267L65.3569 46.1933ZM64.1564 46.46C63.7474 46.46 63.431 46.3554 63.1796 46.1686C62.9241 45.9789 62.6984 45.6764 62.5231 45.2205L61.5897 45.5795C61.8144 46.1636 62.1387 46.6411 62.5832 46.9714C63.0318 47.3046 63.5654 47.46 64.1564 47.46V46.46ZM62.5289 45.2364C62.1974 44.2788 62.0164 42.7284 62.0164 40.54H61.0164C61.0164 42.7516 61.1954 44.4412 61.5839 45.5636L62.5289 45.2364ZM62.0164 40.54C62.0164 34.8627 62.237 30.8001 62.669 28.326L61.6839 28.154C61.2358 30.7199 61.0164 34.8573 61.0164 40.54H62.0164ZM62.6702 28.3188C63.2589 24.6296 64.5927 21.1958 66.6748 18.0138L65.838 17.4662C63.6801 20.7642 62.2939 24.3304 61.6827 28.1612L62.6702 28.3188ZM66.677 18.0104C67.361 16.9463 68.0092 16.56 68.5964 16.56V15.56C67.5036 15.56 66.5918 16.2937 65.8358 17.4696L66.677 18.0104ZM106.823 39.46L106.809 39.96H106.823V39.46ZM115.883 35.74L116.207 36.1211L116.207 36.1206L115.883 35.74ZM118.523 33.22L118.896 33.5535L118.904 33.5438L118.523 33.22ZM120.023 37.48L120.48 37.6818L120.483 37.677L120.023 37.48ZM117.023 41.5L117.366 41.864L117.366 41.8638L117.023 41.5ZM93.143 41.2L92.6958 41.4236L93.143 41.2ZM93.563 29.08L94.0324 29.2521L94.0333 29.2496L93.563 29.08ZM97.043 22.78L96.6603 22.4582L96.656 22.4634L97.043 22.78ZM102.143 18.7L102.367 19.1473L102.374 19.1435L102.143 18.7ZM113.303 18.82L112.962 19.186L112.968 19.1916L113.303 18.82ZM113.783 27.28L113.39 26.9711L113.388 26.973L113.783 27.28ZM110.483 30.04L110.717 30.482L110.727 30.4765L110.483 30.04ZM105.923 32.02L106.085 32.4932L106.091 32.4909L105.923 32.02ZM101.063 33.94L100.858 33.484L100.563 33.6167V33.94H101.063ZM101.063 35.44H100.563L100.563 35.4539L101.063 35.44ZM102.863 38.5L102.633 38.9441L102.863 38.5ZM101.483 29.8L100.99 29.7185L100.802 30.855L101.76 30.216L101.483 29.8ZM103.823 28.3L103.572 27.8672L103.562 27.8734L103.823 28.3ZM105.803 27.04L106.094 27.4469L106.099 27.4432L105.803 27.04ZM107.663 24.04L108.163 24.0578L108.163 24.0489V24.04H107.663ZM106.823 39.96C110.087 39.96 113.218 38.6597 116.207 36.1211L115.559 35.3589C112.708 37.7803 109.799 38.96 106.823 38.96V39.96ZM116.207 36.1206C117.298 35.1912 118.196 34.3353 118.896 33.5534L118.15 32.8866C117.49 33.6247 116.628 34.4488 115.559 35.3594L116.207 36.1206ZM118.904 33.5438C119.233 33.1567 119.507 32.8861 119.728 32.7163C119.838 32.6319 119.925 32.5799 119.99 32.5502C120.056 32.5201 120.084 32.52 120.083 32.52V31.52C119.733 31.52 119.402 31.7049 119.118 31.9237C118.819 32.1539 118.493 32.4833 118.142 32.8962L118.904 33.5438ZM120.083 32.52C120.135 32.52 120.159 32.5317 120.173 32.541C120.19 32.5524 120.225 32.5829 120.266 32.6636C120.354 32.8391 120.423 33.1655 120.423 33.7H121.423C121.423 33.1145 121.352 32.6009 121.16 32.2164C121.061 32.0171 120.921 31.8376 120.728 31.709C120.532 31.5783 120.31 31.52 120.083 31.52V32.52ZM120.423 33.7C120.423 34.7326 120.146 35.9242 119.563 37.283L120.483 37.677C121.1 36.2358 121.423 34.9074 121.423 33.7H120.423ZM119.566 37.2782C118.999 38.562 118.045 39.8491 116.68 41.1362L117.366 41.8638C118.801 40.5109 119.847 39.118 120.48 37.6818L119.566 37.2782ZM116.68 41.136C113.356 44.2669 108.771 45.86 102.863 45.86V46.86C108.955 46.86 113.81 45.2131 117.366 41.864L116.68 41.136ZM102.863 45.86C98.2383 45.86 95.2038 44.2035 93.5902 40.9764L92.6958 41.4236C94.5222 45.0765 97.9676 46.86 102.863 46.86V45.86ZM93.5902 40.9764C93.0407 39.8775 92.743 38.2479 92.743 36.04H91.743C91.743 38.3121 92.0452 40.1225 92.6958 41.4236L93.5902 40.9764ZM92.743 36.04C92.743 33.8664 93.1698 31.6047 94.0324 29.2521L93.0935 28.9079C92.1961 31.3553 91.743 33.7336 91.743 36.04H92.743ZM94.0333 29.2496C94.8967 26.8556 96.0305 24.807 97.4299 23.0966L96.656 22.4634C95.1754 24.273 93.9892 26.4244 93.0926 28.9104L94.0333 29.2496ZM97.4257 23.1018C98.8649 21.3902 100.512 20.0746 102.367 19.1472L101.919 18.2528C99.9341 19.2454 98.181 20.6497 96.6603 22.4582L97.4257 23.1018ZM102.374 19.1435C104.223 18.1805 106.184 17.7 108.263 17.7V16.7C106.022 16.7 103.903 17.2195 101.912 18.2565L102.374 19.1435ZM108.263 17.7C110.386 17.7 111.926 18.2207 112.962 19.1859L113.644 18.4541C112.36 17.2593 110.54 16.7 108.263 16.7V17.7ZM112.968 19.1916C114.056 20.1701 114.603 21.4313 114.603 23.02H115.603C115.603 21.1687 114.95 19.6299 113.637 18.4484L112.968 19.1916ZM114.603 23.02C114.603 24.652 114.187 25.9564 113.39 26.9711L114.176 27.5889C115.139 26.3636 115.603 24.828 115.603 23.02H114.603ZM113.388 26.973C112.595 27.9934 111.549 28.8717 110.239 29.6035L110.727 30.4765C112.137 29.6883 113.291 28.7266 114.178 27.587L113.388 26.973ZM110.249 29.5981C108.913 30.3053 107.416 30.956 105.755 31.5491L106.091 32.4909C107.79 31.884 109.333 31.2147 110.717 30.4819L110.249 29.5981ZM105.761 31.5468C104.106 32.1119 102.472 32.7577 100.858 33.484L101.268 34.396C102.854 33.6823 104.46 33.0481 106.085 32.4932L105.761 31.5468ZM100.563 33.94V35.44H101.563V33.94H100.563ZM100.563 35.4539C100.608 37.0529 101.292 38.2505 102.633 38.9441L103.093 38.0559C102.114 37.5495 101.598 36.7071 101.563 35.4261L100.563 35.4539ZM102.633 38.9441C103.869 39.5831 105.264 39.9181 106.809 39.9598L106.836 38.9602C105.422 38.9219 104.177 38.6169 103.093 38.0559L102.633 38.9441ZM105.803 22.04C104.526 22.04 103.508 22.7982 102.733 24.0993C101.966 25.3886 101.393 27.2757 100.99 29.7185L101.976 29.8815C102.373 27.4843 102.92 25.7414 103.593 24.6107C104.258 23.4918 105 23.04 105.803 23.04V22.04ZM101.76 30.216C102.596 29.659 103.37 29.1626 104.084 28.7266L103.562 27.8734C102.836 28.3174 102.05 28.821 101.206 29.384L101.76 30.216ZM104.073 28.7327C104.844 28.2868 105.518 27.8582 106.094 27.4469L105.512 26.6331C104.968 27.0218 104.322 27.4332 103.572 27.8673L104.073 28.7327ZM106.099 27.4432C107.379 26.5046 108.116 25.3776 108.163 24.0578L107.163 24.0222C107.13 24.9424 106.627 25.8154 105.507 26.6368L106.099 27.4432ZM108.163 24.04C108.163 23.431 107.969 22.8944 107.512 22.5258C107.075 22.1738 106.477 22.04 105.803 22.04V23.04C106.369 23.04 106.701 23.1562 106.884 23.3042C107.047 23.4356 107.163 23.649 107.163 24.04H108.163ZM131.301 46.18V45.68L131.298 45.68L131.301 46.18ZM119.601 39.76L119.149 39.974L119.151 39.9769L119.601 39.76ZM119.121 26.68L118.627 26.604L119.121 26.68ZM123.741 12.28L124.185 12.51L124.185 12.5099L123.741 12.28ZM127.641 6.52L128.013 6.85448L128.013 6.85401L127.641 6.52ZM138.201 1.3L138.196 1.8H138.201V1.3ZM142.221 2.74L141.868 3.09355L141.875 3.10091L141.883 3.10796L142.221 2.74ZM142.161 12.1L142.592 12.3544L142.594 12.3501L142.161 12.1ZM138.141 17.62L137.761 17.2953L137.76 17.2959L138.141 17.62ZM132.801 23.56L133.165 23.9029L132.801 23.56ZM127.041 30.34L126.645 30.0348L126.541 30.1697V30.34H127.041ZM128.481 37.66L128.848 37.3209L128.481 37.66ZM140.961 34.12L141.356 34.4267L141.357 34.4254L140.961 34.12ZM143.121 38.26L142.679 38.0266L142.676 38.0313L143.121 38.26ZM140.241 42.16L140.589 42.5195L140.595 42.5136L140.241 42.16ZM136.101 45.04L135.882 44.5905L136.101 45.04ZM134.541 13.96L134.152 13.6458V13.6458L134.541 13.96ZM136.521 11.14L136.087 10.8919V10.8919L136.521 11.14ZM131.601 11.5L131.172 11.2436L131.169 11.2481L131.601 11.5ZM127.821 22.84L127.329 22.7517L128.24 23.1136L127.821 22.84ZM131.541 17.62L131.156 17.3009L131.151 17.3077L131.541 17.62ZM131.298 45.68C128.499 45.6996 126.183 45.1855 124.327 44.1667C122.475 43.1507 121.05 41.6169 120.052 39.5431L119.151 39.9769C120.232 42.2231 121.797 43.9193 123.846 45.0433C125.889 46.1645 128.383 46.7004 131.305 46.68L131.298 45.68ZM120.053 39.546C119.374 38.1122 119.021 36.2909 119.021 34.06H118.021C118.021 36.3891 118.388 38.3678 119.149 39.974L120.053 39.546ZM119.021 34.06C119.021 31.7686 119.219 29.3341 119.615 26.756L118.627 26.604C118.224 29.2259 118.021 31.7114 118.021 34.06H119.021ZM119.615 26.756C120.408 21.6064 121.932 16.8589 124.185 12.51L123.297 12.05C120.991 16.5011 119.435 21.3536 118.627 26.604L119.615 26.756ZM124.185 12.5099C125.329 10.3014 126.606 8.41798 128.013 6.85448L127.269 6.18551C125.797 7.82201 124.473 9.77858 123.297 12.0501L124.185 12.5099ZM128.013 6.85401C131.1 3.4155 134.491 1.76177 138.196 1.79997L138.206 0.800022C134.151 0.758221 130.502 2.58449 127.269 6.18598L128.013 6.85401ZM138.201 1.8C139.826 1.8 141.025 2.25071 141.868 3.09355L142.575 2.38645C141.497 1.30928 140.016 0.799995 138.201 0.799995V1.8ZM141.883 3.10796C142.751 3.90729 143.221 5.09617 143.221 6.76H144.221C144.221 4.90383 143.691 3.41271 142.56 2.37203L141.883 3.10796ZM143.221 6.76C143.221 8.41745 142.732 10.112 141.728 11.8499L142.594 12.3501C143.67 10.488 144.221 8.62255 144.221 6.76H143.221ZM141.731 11.8456C140.708 13.5758 139.386 15.3923 137.761 17.2953L138.521 17.9447C140.176 16.0077 141.534 14.1442 142.592 12.3544L141.731 11.8456ZM137.76 17.2959C136.167 19.1686 134.392 21.1423 132.437 23.2171L133.165 23.9029C135.13 21.8177 136.916 19.8314 138.522 17.9441L137.76 17.2959ZM132.437 23.2171C130.465 25.31 128.534 27.5827 126.645 30.0348L127.437 30.6452C129.308 28.2173 131.217 25.97 133.165 23.9029L132.437 23.2171ZM126.541 30.34V32.74H127.541V30.34H126.541ZM126.541 32.74C126.541 35.0357 127.031 36.8258 128.114 37.9991L128.848 37.3209C128.012 36.4142 127.541 34.9243 127.541 32.74H126.541ZM128.114 37.9991C129.157 39.1296 130.406 39.72 131.841 39.72V38.72C130.716 38.72 129.725 38.2704 128.848 37.3209L128.114 37.9991ZM131.841 39.72C135.474 39.72 138.648 37.9148 141.356 34.4266L140.566 33.8134C137.995 37.1251 135.088 38.72 131.841 38.72V39.72ZM141.357 34.4254C141.887 33.7378 142.338 33.2432 142.711 32.9253C143.103 32.5907 143.329 32.52 143.421 32.52V31.52C142.953 31.52 142.49 31.7993 142.061 32.1647C141.614 32.5468 141.115 33.1022 140.565 33.8146L141.357 34.4254ZM143.421 32.52C143.451 32.52 143.461 32.526 143.474 32.5361C143.495 32.5529 143.54 32.6011 143.589 32.7204C143.691 32.9685 143.761 33.3993 143.761 34.06H144.761C144.761 33.3607 144.691 32.7715 144.513 32.3396C144.423 32.1189 144.293 31.9121 144.103 31.7589C143.906 31.599 143.671 31.52 143.421 31.52V32.52ZM143.761 34.06C143.761 35.3241 143.408 36.6444 142.679 38.0266L143.563 38.4934C144.354 36.9956 144.761 35.5159 144.761 34.06H143.761ZM142.676 38.0313C141.982 39.3818 141.054 40.6402 139.888 41.8064L140.595 42.5136C141.828 41.2798 142.82 39.9382 143.566 38.4887L142.676 38.0313ZM139.894 41.8005C138.733 42.9225 137.397 43.8526 135.882 44.5905L136.32 45.4895C137.925 44.7074 139.349 43.7175 140.589 42.5195L139.894 41.8005ZM135.882 44.5905C134.386 45.3192 132.861 45.68 131.301 45.68V46.68C133.021 46.68 134.696 46.2808 136.32 45.4895L135.882 44.5905ZM134.93 14.2742C135.781 13.2206 136.458 12.2581 136.955 11.3881L136.087 10.8919C135.624 11.7018 134.981 12.6194 134.152 13.6458L134.93 14.2742ZM136.955 11.3881C137.474 10.4802 137.741 9.53548 137.741 8.56H136.741C136.741 9.34452 136.528 10.1198 136.087 10.8919L136.955 11.3881ZM137.741 8.56C137.741 8.05743 137.656 7.59156 137.412 7.23947C137.144 6.85442 136.738 6.68 136.281 6.68V7.68C136.464 7.68 136.538 7.73558 136.591 7.81053C136.666 7.91844 136.741 8.14257 136.741 8.56H137.741ZM136.281 6.68C135.404 6.68 134.548 7.13015 133.722 7.8926C132.892 8.65826 132.044 9.78338 131.172 11.2436L132.03 11.7564C132.878 10.3366 133.67 9.30173 134.4 8.6274C135.134 7.94984 135.758 7.68 136.281 7.68V6.68ZM131.169 11.2481C129.45 14.1952 128.175 18.0366 127.329 22.7517L128.313 22.9283C129.147 18.2834 130.392 14.5648 132.033 11.7519L131.169 11.2481ZM128.24 23.1136C129.594 21.0423 130.824 19.3162 131.932 17.9323L131.151 17.3077C130.018 18.7238 128.768 20.4777 127.403 22.5664L128.24 23.1136ZM131.926 17.939C133.087 16.5379 134.088 15.3162 134.93 14.2742L134.152 13.6458C133.314 14.6838 132.315 15.9021 131.156 17.301L131.926 17.939ZM164.954 40.9L165.052 40.4097L164.764 40.352L164.573 40.5763L164.954 40.9ZM143.654 43.12L143.294 43.4672L143.297 43.4704L143.654 43.12ZM140.414 34.66L140.914 34.666L140.914 34.6558L140.414 34.66ZM144.914 22.36L144.539 22.0289L144.914 22.36ZM162.254 18.04L162.064 18.5023L162.066 18.5031L162.254 18.04ZM160.814 21.76V22.26L160.82 22.26L160.814 21.76ZM152.534 25.18L152.177 24.8296L152.177 24.8296L152.534 25.18ZM150.794 38.26L150.411 38.5813L150.417 38.588L150.422 38.5945L150.794 38.26ZM160.154 38.86L160.419 39.284L161.071 38.8765L160.434 38.4458L160.154 38.86ZM155.894 30.52H156.394L156.394 30.5096L155.894 30.52ZM157.934 25.3L157.562 24.9655L157.562 24.966L157.934 25.3ZM163.394 22.9V23.4001L163.403 23.3999L163.394 22.9ZM168.194 24.7L168.589 24.3939L168.194 24.7ZM168.254 35.62L167.794 35.4241L167.498 36.12H168.254V35.62ZM168.614 35.62V36.1201L168.625 36.1199L168.614 35.62ZM173.174 33.76L173.516 34.1248L173.522 34.1193L173.528 34.1136L173.174 33.76ZM174.374 32.5L174.021 32.1464L174.01 32.1568L174 32.1678L174.374 32.5ZM174.134 39.46L174.454 39.8442L174.46 39.8389L174.134 39.46ZM164.414 33.94L164.061 34.2936L164.563 34.7959L164.866 34.1535L164.414 33.94ZM163.214 28.48L163.668 28.6895V28.6895L163.214 28.48ZM164.573 40.5763C161.497 44.197 157.832 45.98 153.554 45.98V46.98C158.156 46.98 162.091 45.043 165.335 41.2237L164.573 40.5763ZM153.554 45.98C149.233 45.98 146.084 44.8809 144.011 42.7696L143.297 43.4704C145.624 45.8391 149.075 46.98 153.554 46.98V45.98ZM144.014 42.7728C141.911 40.5937 140.875 37.9032 140.914 34.666L139.914 34.654C139.873 38.1368 140.997 41.0863 143.294 43.4672L144.014 42.7728ZM140.914 34.6558C140.875 30.0142 142.334 26.0349 145.289 22.6911L144.539 22.0289C141.414 25.5651 139.873 29.7858 139.914 34.6642L140.914 34.6558ZM145.289 22.6911C148.226 19.3669 152.066 17.7 156.854 17.7V16.7C151.802 16.7 147.682 18.4731 144.539 22.0289L145.289 22.6911ZM156.854 17.7C159.059 17.7 160.787 17.9767 162.064 18.5023L162.444 17.5777C161.001 16.9833 159.129 16.7 156.854 16.7V17.7ZM162.066 18.5031C163.229 18.9766 164.067 19.4219 164.606 19.8326C165.163 20.2577 165.294 20.5631 165.294 20.74H166.294C166.294 20.0769 165.835 19.5123 165.212 19.0374C164.571 18.5481 163.639 18.0634 162.442 17.5769L162.066 18.5031ZM165.294 20.74C165.294 20.644 165.367 20.6514 165.229 20.7332C165.092 20.8139 164.844 20.9042 164.449 20.9852C163.667 21.1453 162.46 21.2401 160.808 21.26L160.82 22.26C162.488 22.2399 163.771 22.1447 164.649 21.9648C165.084 21.8758 165.459 21.7586 165.737 21.5943C166.014 21.4311 166.294 21.156 166.294 20.74H165.294ZM160.814 21.26C157.404 21.26 154.514 22.4511 152.177 24.8296L152.891 25.5304C155.034 23.3489 157.664 22.26 160.814 22.26V21.26ZM152.177 24.8296C149.876 27.1725 148.734 30.1427 148.734 33.7H149.734C149.734 30.3773 150.792 27.6675 152.891 25.5304L152.177 24.8296ZM148.734 33.7C148.734 35.6034 149.287 37.241 150.411 38.5813L151.177 37.9387C150.221 36.799 149.734 35.3966 149.734 33.7H148.734ZM150.422 38.5945C151.615 39.9198 153.262 40.56 155.294 40.56V39.56C153.487 39.56 152.133 39.0002 151.166 37.9255L150.422 38.5945ZM155.294 40.56C157.32 40.56 159.039 40.1465 160.419 39.284L159.889 38.436C158.709 39.1735 157.188 39.56 155.294 39.56V40.56ZM160.434 38.4458C157.741 36.6254 156.394 34.0062 156.394 30.52H155.394C155.394 34.3138 156.887 37.2546 159.874 39.2742L160.434 38.4458ZM156.394 30.5096C156.357 28.7285 156.982 27.1089 158.306 25.634L157.562 24.966C156.086 26.6111 155.351 28.4715 155.394 30.5304L156.394 30.5096ZM158.306 25.6345C159.649 24.1425 161.332 23.4 163.394 23.4V22.4C161.056 22.4 159.1 23.2575 157.562 24.9655L158.306 25.6345ZM163.403 23.3999C165.557 23.3615 166.972 23.9383 167.799 25.0061L168.589 24.3939C167.496 22.9817 165.711 22.3585 163.385 22.4001L163.403 23.3999ZM167.799 25.0061C168.675 26.1385 169.134 27.6226 169.134 29.5H170.134C170.134 27.4574 169.633 25.7415 168.589 24.3939L167.799 25.0061ZM169.134 29.5C169.134 31.3394 168.693 33.3126 167.794 35.4241L168.714 35.8159C169.655 33.6074 170.134 31.5006 170.134 29.5H169.134ZM168.254 36.12H168.614V35.12H168.254V36.12ZM168.625 36.1199C170.508 36.0771 172.146 35.4093 173.516 34.1248L172.832 33.3952C171.642 34.5107 170.24 35.0829 168.603 35.1201L168.625 36.1199ZM173.528 34.1136C174.012 33.6292 174.419 33.2018 174.748 32.8322L174 32.1678C173.689 32.5182 173.296 32.9308 172.821 33.4064L173.528 34.1136ZM174.728 32.8536C175.033 32.548 175.273 32.46 175.454 32.46V31.46C174.915 31.46 174.435 31.7319 174.021 32.1464L174.728 32.8536ZM175.454 32.46C175.488 32.46 175.5 32.4671 175.513 32.4769C175.532 32.4925 175.576 32.5374 175.624 32.6503C175.724 32.8864 175.794 33.3002 175.794 33.94H176.794C176.794 33.2598 176.724 32.6836 176.544 32.2597C176.452 32.0426 176.321 31.84 176.13 31.6906C175.933 31.5354 175.7 31.46 175.454 31.46V32.46ZM175.794 33.94C175.794 36.2788 175.108 37.9617 173.808 39.0811L174.46 39.8389C176.04 38.4784 176.794 36.4812 176.794 33.94H175.794ZM173.814 39.0759C172.458 40.2063 170.969 40.76 169.334 40.76V41.76C171.219 41.76 172.931 41.1137 174.454 39.8441L173.814 39.0759ZM169.334 40.76C167.635 40.76 166.21 40.6412 165.052 40.4097L164.856 41.3903C166.098 41.6388 167.593 41.76 169.334 41.76V40.76ZM164.866 34.1535C165.572 32.6581 165.934 31.1854 165.934 29.74H164.934C164.934 31.0146 164.616 32.3419 163.962 33.7265L164.866 34.1535ZM165.934 29.74C165.934 29.0221 165.821 28.3973 165.524 27.9384C165.203 27.4419 164.706 27.2 164.114 27.2V28.2C164.402 28.2 164.566 28.2981 164.684 28.4816C164.827 28.7027 164.934 29.0979 164.934 29.74H165.934ZM164.114 27.2C163.458 27.2 163.028 27.6889 162.76 28.2705L163.668 28.6895C163.88 28.2311 164.05 28.2 164.114 28.2V27.2ZM162.76 28.2705C162.496 28.8436 162.354 29.415 162.354 29.98H163.354C163.354 29.585 163.453 29.1563 163.668 28.6895L162.76 28.2705ZM162.354 29.98C162.354 31.6998 162.918 33.1511 164.061 34.2936L164.768 33.5864C163.83 32.6489 163.354 31.4602 163.354 29.98H162.354ZM184.632 20.86L184.147 20.9813L184.378 21.9046L185.007 21.1906L184.632 20.86ZM201.432 22.96L201.908 22.807L201.907 22.8034L201.432 22.96ZM198.972 35.68L198.558 35.4001L198.555 35.4039L198.972 35.68ZM191.832 41.68L191.658 41.2113L191.832 42.18V41.68ZM201.432 38.44L201.143 38.032L201.14 38.0342L201.432 38.44ZM205.932 34.24L205.533 33.9383L205.532 33.94L205.932 34.24ZM206.412 40.72L206.788 41.05L206.795 41.0421L206.412 40.72ZM195.372 46.48L195.427 46.977L195.434 46.9761L195.372 46.48ZM188.472 46.66L188.559 46.1676L188.472 46.66ZM185.352 45.76L185.124 46.2049L185.129 46.2072L185.352 45.76ZM183.552 39.76V39.26H183.243L183.105 39.5364L183.552 39.76ZM192.252 24.82L191.878 25.1522L191.883 25.1575L191.888 25.1627L192.252 24.82ZM183.252 28.6L182.813 28.3614L182.81 28.3661L183.252 28.6ZM181.272 32.68L181.727 32.8869L181.73 32.8818L181.272 32.68ZM179.832 37.72L179.34 37.6331L179.34 37.6343L179.832 37.72ZM177.612 51.64L177.118 51.5658L177.117 51.5698L177.612 51.64ZM176.112 60.7L175.665 60.4764L175.661 60.4847L175.657 60.4931L176.112 60.7ZM175.212 61.9L174.878 61.5284L175.212 61.9ZM171.972 61.72L172.311 61.3526L172.305 61.3467L172.298 61.3411L171.972 61.72ZM169.452 58.84L169.924 58.6736L169.92 58.6644L169.452 58.84ZM171.072 39.82L170.581 39.7284L171.072 39.82ZM177.912 17.74L177.453 17.543L177.452 17.5448L177.912 17.74ZM183.972 19.3L183.528 19.5302L183.533 19.5392L183.538 19.5481L183.972 19.3ZM185.007 21.1906C186.989 18.9419 189.511 17.82 192.612 17.82V16.82C189.234 16.82 186.435 18.0581 184.257 20.5294L185.007 21.1906ZM192.612 17.82C194.867 17.82 196.661 18.277 198.028 19.1512C199.388 20.021 200.368 21.3303 200.957 23.1166L201.907 22.8034C201.256 20.8297 200.146 19.319 198.567 18.3088C196.994 17.303 194.997 16.82 192.612 16.82V17.82ZM200.956 23.113C201.298 24.1765 201.472 25.364 201.472 26.68H202.472C202.472 25.276 202.286 23.9835 201.908 22.807L200.956 23.113ZM201.472 26.68C201.472 29.6037 200.512 32.5079 198.558 35.4001L199.386 35.9599C201.432 32.9321 202.472 29.8363 202.472 26.68H201.472ZM198.555 35.4039C196.642 38.2928 194.341 40.2147 191.658 41.2113L192.006 42.1487C194.923 41.0653 197.382 38.9872 199.389 35.956L198.555 35.4039ZM191.832 42.18H192.552V41.18H191.832V42.18ZM192.552 42.18C195.602 42.18 198.662 41.0506 201.724 38.8458L201.14 38.0342C198.202 40.1494 195.342 41.18 192.552 41.18V42.18ZM201.721 38.848C203.671 37.4667 205.213 36.0321 206.332 34.54L205.532 33.94C204.491 35.3279 203.033 36.6933 201.143 38.032L201.721 38.848ZM206.331 34.5417C206.882 33.8135 207.349 33.2884 207.733 32.9502C208.139 32.5921 208.368 32.52 208.452 32.52V31.52C207.976 31.52 207.505 31.8179 207.072 32.1998C206.616 32.6016 206.102 33.1865 205.533 33.9383L206.331 34.5417ZM208.452 32.52C208.49 32.52 208.504 32.5282 208.517 32.5377C208.536 32.5522 208.578 32.594 208.624 32.7004C208.722 32.9245 208.792 33.3211 208.792 33.94H209.792C209.792 33.2789 209.722 32.7155 209.54 32.2996C209.447 32.086 209.314 31.8878 209.123 31.7423C208.925 31.5918 208.695 31.52 208.452 31.52V32.52ZM208.792 33.94C208.792 36.028 207.899 38.178 206.03 40.3979L206.795 41.0421C208.765 38.702 209.792 36.332 209.792 33.94H208.792ZM206.036 40.3901C203.24 43.5748 199.673 45.4385 195.31 45.9839L195.434 46.9761C200.031 46.4015 203.824 44.4252 206.788 41.0499L206.036 40.3901ZM195.317 45.9831C192.078 46.343 189.841 46.3939 188.559 46.1676L188.385 47.1524C189.823 47.4061 192.187 47.337 195.427 46.9769L195.317 45.9831ZM188.559 46.1676C187.218 45.9309 186.233 45.6412 185.576 45.3128L185.129 46.2072C185.912 46.5988 187.007 46.9091 188.385 47.1524L188.559 46.1676ZM185.58 45.3151C184.861 44.946 184.349 44.4996 184.016 43.9875C183.685 43.478 183.512 42.8751 183.512 42.16H182.512C182.512 43.0449 182.729 43.842 183.178 44.5325C183.625 45.2204 184.284 45.774 185.124 46.2049L185.58 45.3151ZM183.512 42.16C183.512 41.3503 183.677 40.6279 183.999 39.9836L183.105 39.5364C182.707 40.3321 182.512 41.2097 182.512 42.16H183.512ZM183.552 40.26C186.86 40.26 189.423 38.9919 191.165 36.4421L190.339 35.8779C188.802 38.1281 186.564 39.26 183.552 39.26V40.26ZM191.165 36.4421C192.874 33.941 193.712 30.8365 193.712 27.16H192.712C192.712 30.6835 191.91 33.579 190.339 35.8779L191.165 36.4421ZM193.712 27.16C193.712 26.1443 193.338 25.2438 192.616 24.4773L191.888 25.1627C192.447 25.7562 192.712 26.4157 192.712 27.16H193.712ZM192.626 24.4878C191.879 23.6475 190.876 23.24 189.672 23.24V24.24C190.629 24.24 191.345 24.5525 191.878 25.1522L192.626 24.4878ZM189.672 23.24C188.484 23.24 187.241 23.764 185.954 24.7184L186.55 25.5215C187.744 24.6359 188.78 24.24 189.672 24.24V23.24ZM185.954 24.7184C184.654 25.6832 183.606 26.8996 182.813 28.3615L183.692 28.8385C184.418 27.5004 185.37 26.3968 186.55 25.5215L185.954 24.7184ZM182.81 28.3661C182.085 29.7362 181.42 31.1069 180.815 32.4782L181.73 32.8818C182.325 31.5331 182.979 30.1838 183.694 28.8339L182.81 28.3661ZM180.817 32.4731C180.194 33.8438 179.704 35.5678 179.34 37.6331L180.325 37.8069C180.68 35.7922 181.15 34.1562 181.727 32.8869L180.817 32.4731ZM179.34 37.6343C178.699 41.3196 177.958 45.9637 177.118 51.5658L178.107 51.7142C178.946 46.1163 179.686 41.4804 180.325 37.8057L179.34 37.6343ZM177.117 51.5698C176.717 54.3886 176.393 56.5491 176.144 58.0533C176.019 58.806 175.914 59.3901 175.829 59.8085C175.786 60.018 175.749 60.1813 175.717 60.3011C175.683 60.4336 175.664 60.4783 175.665 60.4764L176.559 60.9236C176.61 60.8217 176.651 60.6846 176.685 60.5533C176.723 60.4094 176.764 60.227 176.808 60.009C176.898 59.5724 177.005 58.974 177.13 58.2167C177.381 56.7009 177.707 54.5314 178.107 51.7102L177.117 51.5698ZM175.657 60.4931C175.489 60.8637 175.232 61.2091 174.878 61.5284L175.547 62.2716C175.992 61.8709 176.336 61.4163 176.567 60.9069L175.657 60.4931ZM174.878 61.5284C174.548 61.825 174.243 61.94 173.952 61.94V62.94C174.542 62.94 175.076 62.695 175.547 62.2716L174.878 61.5284ZM173.952 61.94C173.26 61.94 172.727 61.7361 172.311 61.3526L171.633 62.0874C172.258 62.6639 173.044 62.94 173.952 62.94V61.94ZM172.298 61.3411C171.589 60.7298 171.037 60.1967 170.638 59.7407C170.233 59.2775 170.012 58.9244 169.924 58.6736L168.981 59.0064C169.132 59.4356 169.451 59.9025 169.886 60.3993C170.327 60.9033 170.916 61.4702 171.646 62.0989L172.298 61.3411ZM169.92 58.6644C169.709 58.1019 169.592 57.3281 169.592 56.32H168.592C168.592 57.3919 168.715 58.2981 168.984 59.0156L169.92 58.6644ZM169.592 56.32C169.592 52.4463 170.246 46.982 171.564 39.9116L170.581 39.7284C169.259 46.818 168.592 52.3537 168.592 56.32H169.592ZM171.564 39.9116C172.876 32.8721 175.145 25.5468 178.372 17.9352L177.452 17.5448C174.2 25.2132 171.908 32.6079 170.581 39.7284L171.564 39.9116ZM178.372 17.937C178.582 17.4475 178.856 17.112 179.18 16.896C179.503 16.6804 179.912 16.56 180.432 16.56V15.56C179.752 15.56 179.141 15.7196 178.625 16.064C178.109 16.408 177.723 16.9125 177.453 17.543L178.372 17.937ZM180.432 16.56C180.894 16.56 181.384 16.758 181.91 17.2388C182.44 17.7242 182.983 18.478 183.528 19.5302L184.416 19.0698C183.842 17.962 183.234 17.0958 182.585 16.5012C181.93 15.902 181.21 15.56 180.432 15.56V16.56ZM183.538 19.5481C183.842 20.0797 184.041 20.5568 184.147 20.9813L185.117 20.7387C184.983 20.2032 184.743 19.6403 184.406 19.0519L183.538 19.5481ZM220.26 39.46L220.247 39.96H220.26V39.46ZM229.32 35.74L229.644 36.1211L229.645 36.1206L229.32 35.74ZM231.96 33.22L232.333 33.5535L232.341 33.5438L231.96 33.22ZM233.46 37.48L233.918 37.6818L233.92 37.677L233.46 37.48ZM230.46 41.5L230.803 41.864L230.803 41.8638L230.46 41.5ZM206.58 41.2L206.133 41.4236L206.58 41.2ZM207 29.08L207.47 29.2521L207.471 29.2496L207 29.08ZM210.48 22.78L210.098 22.4582L210.093 22.4634L210.48 22.78ZM215.58 18.7L215.804 19.1473L215.811 19.1435L215.58 18.7ZM226.74 18.82L226.4 19.186L226.406 19.1916L226.74 18.82ZM227.22 27.28L226.827 26.9711L226.826 26.973L227.22 27.28ZM223.92 30.04L224.154 30.482L224.164 30.4765L223.92 30.04ZM219.36 32.02L219.522 32.4932L219.529 32.4909L219.36 32.02ZM214.5 33.94L214.295 33.484L214 33.6167V33.94H214.5ZM214.5 35.44H214L214.001 35.4539L214.5 35.44ZM216.3 38.5L216.071 38.9441L216.3 38.5ZM214.92 29.8L214.427 29.7185L214.239 30.855L215.198 30.216L214.92 29.8ZM217.26 28.3L217.01 27.8672L217 27.8734L217.26 28.3ZM219.24 27.04L219.531 27.4469L219.536 27.4432L219.24 27.04ZM221.1 24.04L221.6 24.0578L221.6 24.0489V24.04H221.1ZM220.26 39.96C223.524 39.96 226.655 38.6597 229.644 36.1211L228.997 35.3589C226.146 37.7803 223.237 38.96 220.26 38.96V39.96ZM229.645 36.1206C230.736 35.1912 231.634 34.3353 232.333 33.5534L231.588 32.8866C230.927 33.6247 230.065 34.4488 228.996 35.3594L229.645 36.1206ZM232.341 33.5438C232.671 33.1567 232.945 32.8861 233.165 32.7163C233.275 32.6319 233.362 32.5799 233.427 32.5502C233.493 32.5201 233.522 32.52 233.52 32.52V31.52C233.171 31.52 232.84 31.7049 232.556 31.9237C232.256 32.1539 231.93 32.4833 231.579 32.8962L232.341 33.5438ZM233.52 32.52C233.573 32.52 233.597 32.5317 233.611 32.541C233.628 32.5524 233.663 32.5829 233.703 32.6636C233.791 32.8391 233.86 33.1655 233.86 33.7H234.86C234.86 33.1145 234.79 32.6009 234.598 32.2164C234.498 32.0171 234.358 31.8376 234.165 31.709C233.969 31.5783 233.748 31.52 233.52 31.52V32.52ZM233.86 33.7C233.86 34.7326 233.583 35.9242 233.001 37.283L233.92 37.677C234.538 36.2358 234.86 34.9074 234.86 33.7H233.86ZM233.003 37.2782C232.437 38.562 231.483 39.8491 230.117 41.1362L230.803 41.8638C232.238 40.5109 233.284 39.118 233.918 37.6818L233.003 37.2782ZM230.118 41.136C226.794 44.2669 222.209 45.86 216.3 45.86V46.86C222.392 46.86 227.247 45.2131 230.803 41.864L230.118 41.136ZM216.3 45.86C211.676 45.86 208.641 44.2035 207.028 40.9764L206.133 41.4236C207.96 45.0765 211.405 46.86 216.3 46.86V45.86ZM207.028 40.9764C206.478 39.8775 206.18 38.2479 206.18 36.04H205.18C205.18 38.3121 205.483 40.1225 206.133 41.4236L207.028 40.9764ZM206.18 36.04C206.18 33.8664 206.607 31.6047 207.47 29.2521L206.531 28.9079C205.634 31.3553 205.18 33.7336 205.18 36.04H206.18ZM207.471 29.2496C208.334 26.8556 209.468 24.807 210.867 23.0966L210.093 22.4634C208.613 24.273 207.427 26.4244 206.53 28.9104L207.471 29.2496ZM210.863 23.1018C212.302 21.3902 213.949 20.0746 215.804 19.1472L215.357 18.2528C213.372 19.2454 211.619 20.6497 210.098 22.4582L210.863 23.1018ZM215.811 19.1435C217.66 18.1805 219.621 17.7 221.7 17.7V16.7C219.46 16.7 217.341 17.2195 215.35 18.2565L215.811 19.1435ZM221.7 17.7C223.823 17.7 225.363 18.2207 226.4 19.1859L227.081 18.4541C225.798 17.2593 223.977 16.7 221.7 16.7V17.7ZM226.406 19.1916C227.493 20.1701 228.04 21.4313 228.04 23.02H229.04C229.04 21.1687 228.388 19.6299 227.075 18.4484L226.406 19.1916ZM228.04 23.02C228.04 24.652 227.625 25.9564 226.827 26.9711L227.614 27.5889C228.576 26.3636 229.04 24.828 229.04 23.02H228.04ZM226.826 26.973C226.032 27.9934 224.986 28.8717 223.677 29.6035L224.164 30.4765C225.575 29.6883 226.729 28.7266 227.615 27.587L226.826 26.973ZM223.687 29.5981C222.351 30.3053 220.853 30.956 219.192 31.5491L219.529 32.4909C221.228 31.884 222.77 31.2147 224.154 30.4819L223.687 29.5981ZM219.199 31.5468C217.544 32.1119 215.909 32.7577 214.295 33.484L214.706 34.396C216.292 33.6823 217.897 33.0481 219.522 32.4932L219.199 31.5468ZM214 33.94V35.44H215V33.94H214ZM214.001 35.4539C214.045 37.0529 214.73 38.2505 216.071 38.9441L216.53 38.0559C215.551 37.5495 215.036 36.7071 215 35.4261L214.001 35.4539ZM216.071 38.9441C217.306 39.5831 218.702 39.9181 220.247 39.9598L220.274 38.9602C218.859 38.9219 217.615 38.6169 216.53 38.0559L216.071 38.9441ZM219.24 22.04C217.964 22.04 216.945 22.7982 216.171 24.0993C215.404 25.3886 214.831 27.2757 214.427 29.7185L215.414 29.8815C215.81 27.4843 216.357 25.7414 217.03 24.6107C217.696 23.4918 218.437 23.04 219.24 23.04V22.04ZM215.198 30.216C216.033 29.659 216.808 29.1626 217.521 28.7266L217 27.8734C216.273 28.3174 215.488 28.821 214.643 29.384L215.198 30.216ZM217.511 28.7327C218.281 28.2868 218.955 27.8582 219.531 27.4469L218.95 26.6331C218.406 27.0218 217.76 27.4332 217.01 27.8673L217.511 28.7327ZM219.536 27.4432C220.816 26.5046 221.553 25.3776 221.6 24.0578L220.601 24.0222C220.568 24.9424 220.065 25.8154 218.945 26.6368L219.536 27.4432ZM221.6 24.04C221.6 23.431 221.406 22.8944 220.949 22.5258C220.513 22.1738 219.915 22.04 219.24 22.04V23.04C219.806 23.04 220.138 23.1562 220.322 23.3042C220.485 23.4356 220.6 23.649 220.6 24.04H221.6Z" fill="#EDD0B5" fill-opacity="0.1"/>
</g>
<defs>
<filter id="filter0_b_1_12" x="-3.40002" y="-3.17999" width="241.76" height="69.62" filterUnits="userSpaceOnUse" color-interpolation-filters="sRGB">
<feFlood flood-opacity="0" result="BackgroundImageFix"/>
<feGaussianBlur in="BackgroundImageFix" stdDeviation="2"/>
<feComposite in2="SourceAlpha" operator="in" result="effect1_backgroundBlur_1_12"/>
<feBlend mode="normal" in="SourceGraphic" in2="effect1_backgroundBlur_1_12" result="shape"/>
</filter>
</defs>
</svg>
